<svg version="1.1" xmlns="http://www.w3.org/2000/svg" width="347" height="146">
<path d="M0 0 C2.6875 2.4375 2.6875 2.4375 5 5 C5.99 5.33 6.98 5.66 8 6 C8.66 4.02 9.32 2.04 10 0 C12.475 0.495 12.475 0.495 15 1 C15 2.32 15 3.64 15 5 C19.29 5 23.58 5 28 5 C28 5.99 28 6.98 28 8 C21.565 8.495 21.565 8.495 15 9 C13.51536499 23.55214105 13.51536499 23.55214105 15 38 C20.69696259 31.76046954 21.36107607 23.47685124 21.7890625 15.40625 C22 13 22 13 23 12 C24.66617115 11.95936168 26.33388095 11.957279 28 12 C27.98839844 13.12019531 27.97679687 14.24039063 27.96484375 15.39453125 C27.95546378 16.86718583 27.9463638 18.33984222 27.9375 19.8125 C27.92493164 20.91948242 27.92493164 20.91948242 27.91210938 22.04882812 C27.89740172 25.29922068 27.96468298 27.89404895 29 31 C29.49371094 29.85660156 29.98742187 28.71320313 30.49609375 27.53515625 C31.14310512 26.044217 31.7902473 24.5533345 32.4375 23.0625 C32.76298828 22.30775391 33.08847656 21.55300781 33.42382812 20.77539062 C35.88671875 15.11328125 35.88671875 15.11328125 37 14 C38.65 14 40.3 14 42 14 C42 20.6 42 27.2 42 34 C42.53625 31.793125 43.0725 29.58625 43.625 27.3125 C45.73063842 19.45898925 45.73063842 19.45898925 49 16.6875 C51.51435192 15.27317704 53.25198628 14.59816678 56 14 C56.20496094 13.14535156 56.40992188 12.29070312 56.62109375 11.41015625 C56.89050781 10.30542969 57.15992188 9.20070313 57.4375 8.0625 C57.70433594 6.96035156 57.97117187 5.85820313 58.24609375 4.72265625 C59 2 59 2 60 1 C61.65 1 63.3 1 65 1 C65 12.88 65 24.76 65 37 C66.32 31.39 67.64 25.78 69 20 C69.66 17.69 70.32 15.38 71 13 C72.32 13.33 73.64 13.66 75 14 C74.98839844 15.10859375 74.97679687 16.2171875 74.96484375 17.359375 C74.95546208 18.82291498 74.94636229 20.28645678 74.9375 21.75 C74.92493164 22.84441406 74.92493164 22.84441406 74.91210938 23.9609375 C74.89608316 27.48670558 75.04707287 30.61034916 76 34 C76.51949219 32.86820313 77.03898437 31.73640625 77.57421875 30.5703125 C78.27778508 29.08813277 78.9822599 27.60638405 79.6875 26.125 C80.02716797 25.37863281 80.36683594 24.63226563 80.71679688 23.86328125 C82.3485735 20.47772601 83.35069621 18.41932138 86.55859375 16.34765625 C89 16 89 16 90.7734375 16.86328125 C91.30195313 17.34152344 91.83046875 17.81976563 92.375 18.3125 C95.94725289 21.20170673 98.45355936 21.72164649 103 22 C103 22.66 103 23.32 103 24 C99.04 24.495 99.04 24.495 95 25 C94.81824219 25.92232422 94.81824219 25.92232422 94.6328125 26.86328125 C94.46523437 27.67152344 94.29765625 28.47976562 94.125 29.3125 C93.96257812 30.11300781 93.80015625 30.91351563 93.6328125 31.73828125 C93 34 93 34 91 37 C89.1875 37.875 89.1875 37.875 87 38 C84.375 36.5625 84.375 36.5625 82 35 C79.79548307 34.81177203 79.79548307 34.81177203 77.625 36.625 C76.75875 37.07875 75.8925 37.5325 75 38 C72.6875 37.1875 72.6875 37.1875 71 36 C71 35.34 71 34.68 71 34 C70.34 34 69.68 34 69 34 C68.896875 35.0725 68.79375 36.145 68.6875 37.25 C68.02599507 40.85820872 67.42516579 42.36395023 65 45 C62.20513074 44.71087559 61.20348719 44.24261934 59.375 42.0625 C57.47903404 37.83966673 56.75077919 33.54883862 56 29 C55.443125 30.2375 55.443125 30.2375 54.875 31.5 C54.25625 32.325 53.6375 33.15 53 34 C49.8125 34.3125 49.8125 34.3125 47 34 C45.68 36.97 44.36 39.94 43 43 C41.02 43 39.04 43 37 43 C36.01 39.04 35.02 35.08 34 31 C33.01 32.32 32.02 33.64 31 35 C28.5 35.875 28.5 35.875 26 36 C25.01 35.34 24.02 34.68 23 34 C22.0409375 35.4540625 22.0409375 35.4540625 21.0625 36.9375 C19 40 19 40 18 41 C14.625 41.375 14.625 41.375 11 41 C6.66018403 35.79222083 6.8924595 30.45242988 7 24 C5.02 24.33 3.04 24.66 1 25 C1.11859375 25.59167969 1.2371875 26.18335937 1.359375 26.79296875 C2.42131373 33.30265314 2.42131373 33.30265314 0.1875 37 C-3.5841013 40.44832119 -6.60576338 40.4045559 -11.57421875 40.33984375 C-14 40 -14 40 -16.6875 37.9375 C-18.41200869 34.07788532 -18.1739944 32.03560576 -17 28 C-14.33976247 24.38967764 -12.30244023 23.72657103 -8 23 C-8.22816406 22.29875 -8.45632812 21.5975 -8.69140625 20.875 C-10.53752749 14.78197206 -11.63650752 10.21872856 -10 4 C-7.24218316 -0.08565458 -4.82696603 -0.8865856 0 0 Z M-3 3 C-4.80762921 6.30555971 -5.04117937 7.78487331 -4.3203125 11.55078125 C-3.92585937 12.79214844 -3.53140625 14.03351563 -3.125 15.3125 C-2.73570312 16.56675781 -2.34640625 17.82101563 -1.9453125 19.11328125 C-1.63335937 20.06589844 -1.32140625 21.01851562 -1 22 C1.64 22 4.28 22 7 22 C7 17.71 7 13.42 7 9 C6.34 9 5.68 9 5 9 C5 9.66 5 10.32 5 11 C3.68 11 2.36 11 1 11 C0.01 8.36 -0.98 5.72 -2 3 C-2.33 3 -2.66 3 -3 3 Z M52.5 19.3125 C49.38959156 22.8117095 49.91616642 26.55682047 50 31 C51.90389849 28.14415227 52.69462177 26.0688238 53.625 22.8125 C53.88539063 21.91144531 54.14578125 21.01039062 54.4140625 20.08203125 C54.60742188 19.39496094 54.80078125 18.70789063 55 18 C53.79323739 17.89024923 53.79323739 17.89024923 52.5 19.3125 Z M88 21 C85.79191919 26.19548425 86.06597276 29.58264203 87 35 C90.22738328 33.31119584 90.22738328 33.31119584 90.8125 30.25 C91.01968854 26.65873199 90.33985176 24.31022199 89 21 C88.67 21 88.34 21 88 21 Z M-12.3125 27.625 C-14.2920211 29.93917754 -14.2920211 29.93917754 -14.0625 33.125 C-13.26961943 36.1663559 -13.26961943 36.1663559 -10.625 37.5 C-7.78025473 38.35948488 -7.78025473 38.35948488 -5 36 C-5.33 32.7 -5.66 29.4 -6 26 C-9.925598 25.61670299 -9.925598 25.61670299 -12.3125 27.625 Z " fill="#FCFCFC" transform="translate(142,69)" data-index="0" style="opacity: 1;"></path>
<path d="M0 0 C2.94679595 2.32193319 2.99371028 2.95046845 3.5 6.9375 C3.289409 13.69857962 0.47572656 20.79852853 -3.65234375 26.13671875 C-5.73698332 29.01895955 -5.24681409 31.54460277 -5 35 C-4.57145005 37.31036915 -4.57145005 37.31036915 -4 39 C-0.87613101 38.35034335 -0.87613101 38.35034335 0.02734375 35.9609375 C0.32769531 35.10757813 0.62804687 34.25421875 0.9375 33.375 C2.62179036 28.91131033 4.30907747 24.95229246 7 21 C8.91015625 20.16796875 8.91015625 20.16796875 11 20 C12.74609375 20.9609375 12.74609375 20.9609375 14.4375 22.375 C17.26729201 24.57662698 19.34601477 25.66781952 23 26 C23.2475 25.236875 23.495 24.47375 23.75 23.6875 C25.16782468 20.63917693 26.16292027 19.73377095 29 18 C31.578125 17.48828125 31.578125 17.48828125 34.25 17.3125 C35.58804688 17.21388672 35.58804688 17.21388672 36.953125 17.11328125 C37.62859375 17.07589844 38.3040625 17.03851563 39 17 C40.06723961 20.46222615 40.10173486 23.64039266 40.0625 27.25 C40.05347656 28.32765625 40.04445313 29.4053125 40.03515625 30.515625 C40.02355469 31.33546875 40.01195313 32.1553125 40 33 C40.61875 32.175 41.2375 31.35 41.875 30.5 C42.926875 29.2625 42.926875 29.2625 44 28 C44.66 28 45.32 28 46 28 C45.29417613 31.98833008 43.47292068 33.48184289 40.55078125 36.22265625 C38.78244284 38.24934133 37.89759984 40.1438713 36.875 42.625 C35.40875738 46.1739056 34.3137387 48.82240029 31 51 C27.375 51.375 27.375 51.375 24 51 C23.34 50.34 22.68 49.68 22 49 C22.08616779 45.03628177 22.54188465 43.45811535 25.375 40.625 C28 39 28 39 31 39 C31 37.68 31 36.36 31 35 C30.13375 36.0209375 30.13375 36.0209375 29.25 37.0625 C28.5075 37.701875 27.765 38.34125 27 39 C24.78155374 38.80984746 23.58477845 38.58477845 22 37 C21.54540142 34.34536879 21.29756762 31.67810862 21 29 C19.68 29 18.36 29 17 29 C16.81824219 29.92232422 16.81824219 29.92232422 16.6328125 30.86328125 C16.46523437 31.67152344 16.29765625 32.47976562 16.125 33.3125 C15.96257812 34.11300781 15.80015625 34.91351563 15.6328125 35.73828125 C15 38 15 38 13 41 C11.25 41.875 11.25 41.875 9 42 C5.75 40.5625 5.75 40.5625 3 39 C2.2265625 40.0209375 2.2265625 40.0209375 1.4375 41.0625 C-1 43 -1 43 -4.5 43.25 C-8.31022032 41.88920703 -8.64061492 41.57398181 -10.375 38.1875 C-11.53341318 35.50300338 -12.34717188 32.84812266 -13 30 C-16.45341972 31.15113991 -16.84642358 31.8931744 -18.8125 34.8125 C-22.26239123 39.56568347 -25.51215163 42.44714481 -31.375 43.75 C-32.24125 43.8325 -33.1075 43.915 -34 44 C-34 44.66 -34 45.32 -34 46 C-35.8871875 45.814375 -35.8871875 45.814375 -37.8125 45.625 C-38.52019531 45.55539063 -39.22789063 45.48578125 -39.95703125 45.4140625 C-42 45 -42 45 -45 43 C-43.25 38.125 -43.25 38.125 -41 37 C-40.95101562 35.75605469 -40.90203125 34.51210937 -40.8515625 33.23046875 C-39.83476632 9.75214948 -39.83476632 9.75214948 -36 4 C-34.68 4.33 -33.36 4.66 -32 5 C-32 7.97 -32 10.94 -32 14 C-31.55269531 13.43410156 -31.10539062 12.86820313 -30.64453125 12.28515625 C-30.03996094 11.55167969 -29.43539062 10.81820312 -28.8125 10.0625 C-28.22082031 9.33160156 -27.62914063 8.60070312 -27.01953125 7.84765625 C-24.65046578 5.68021337 -23.17248266 5.23962923 -20 5 C-18.125 6.0625 -18.125 6.0625 -17 8 C-17 13.59017713 -19.94350893 17.55624545 -23 22 C-19.6796203 23.73565302 -16.65433265 25.18174726 -13 26 C-13.04640625 25.26136719 -13.0928125 24.52273437 -13.140625 23.76171875 C-13.40741716 16.26295329 -12.69966202 9.65710789 -9 3 C-5.96940961 0.2682844 -4.10943662 -0.63222102 0 0 Z M-3 3 C-6.28623034 10.14397899 -7.13505096 16.16704442 -7 24 C-2.87424427 19.48131516 -1.23095741 13.54053154 -0.6875 7.5625 C-0.75283471 4.83629312 -0.75283471 4.83629312 -3 3 Z M-24 9 C-28.54401843 14.35409414 -31.18807607 20.27680858 -33 27 C-29.67140292 23.95124073 -27.49564707 20.78089042 -25.25 16.875 C-24.63640625 15.82054688 -24.0228125 14.76609375 -23.390625 13.6796875 C-21.84646024 11.2073063 -21.84646024 11.2073063 -22 9 C-22.66 9 -23.32 9 -24 9 Z M32 20 C28.8833769 22.54996436 27.98307948 25.14330357 27 29 C26.83201531 32.25044709 26.83201531 32.25044709 27 35 C29.23495428 32.76504572 30.0024791 30.97585464 31.1875 28.0625 C31.55230469 27.18722656 31.91710937 26.31195313 32.29296875 25.41015625 C33.28073902 22.89140378 33.28073902 22.89140378 32 20 Z M10 25 C8.20782031 30.16569441 7.87970186 33.51053913 9 39 C12.22738328 37.31119584 12.22738328 37.31119584 12.8125 34.25 C13.01968854 30.65873199 12.33985176 28.31022199 11 25 C10.67 25 10.34 25 10 25 Z M-28.75 29 C-29.36359375 29.556875 -29.9771875 30.11375 -30.609375 30.6875 C-31.06828125 31.120625 -31.5271875 31.55375 -32 32 C-31.01 32.495 -31.01 32.495 -30 33 C-27.75583572 32.23278532 -27.75583572 32.23278532 -25.375 31.0625 C-24.14910156 30.49208984 -24.14910156 30.49208984 -22.8984375 29.91015625 C-21.95871094 29.45962891 -21.95871094 29.45962891 -21 29 C-21 28.01 -21 27.02 -21 26 C-25.36795404 26 -25.74658993 26.22762148 -28.75 29 Z M-34 37 C-34 38.32 -34 39.64 -34 41 C-29.56541027 39.6062718 -27.12621626 37.39417765 -24 34 C-27.86695678 34 -30.5088452 35.41909971 -34 37 Z M26.3125 43.25 C25.879375 43.8275 25.44625 44.405 25 45 C25.22757731 47.16299211 25.22757731 47.16299211 26 49 C26.99 48.67 27.98 48.34 29 48 C29.33 46.02 29.66 44.04 30 42 C27.9178462 41.80159082 27.9178462 41.80159082 26.3125 43.25 Z " fill="#FCFCFC" transform="translate(65,65)" data-index="1" style="opacity: 1;"></path>
<path d="M0 0 C1.65625 1.5234375 1.65625 1.5234375 3 3 C1.36804688 3.99966797 1.36804688 3.99966797 -0.296875 5.01953125 C-9.7891319 10.932545 -18.05729013 17.08899756 -26 25 C-27.12195663 26.09680362 -28.24436684 27.19314342 -29.3671875 28.2890625 C-34.80015578 33.18498462 -34.80015578 33.18498462 -39 39 C-38.01 38.34 -37.02 37.68 -36 37 C-35.01 37 -34.02 37 -33 37 C-33 36.34 -33 35.68 -33 35 C-32.01 34.67 -31.02 34.34 -30 34 C-29.67 34.99 -29.34 35.98 -29 37 C-28.34 37 -27.68 37 -27 37 C-26.67 37.99 -26.34 38.98 -26 40 C-26.60585938 40.27972656 -27.21171875 40.55945312 -27.8359375 40.84765625 C-33.55405359 43.58355487 -38.55825998 46.67248254 -43.578125 50.546875 C-46.39641516 52.2378491 -48.75625943 52.64375104 -52 53 C-52.020625 53.721875 -52.04125 54.44375 -52.0625 55.1875 C-53.2849124 58.8547372 -55.11237996 59.80060382 -58.30859375 61.7890625 C-60.29629704 63.0613426 -60.29629704 63.0613426 -62 66 C-62.99 66 -63.98 66 -65 66 C-65 66.721875 -65 67.44375 -65 68.1875 C-66.52810879 72.48530597 -69.99788511 74.07669326 -74 76 C-74.66 76 -75.32 76 -76 76 C-74.47328137 70.58708848 -73.27203579 66.84483221 -69 63 C-68.7834375 61.9790625 -68.7834375 61.9790625 -68.5625 60.9375 C-67.71083425 58.00398464 -65.57968532 57.49981705 -63 56 C-59.94403415 53.03134746 -58.79095758 50.65484575 -58 46.5625 C-56.30648724 37.89569941 -49.52722779 31.60639791 -44 25 C-43.37480469 24.236875 -42.74960937 23.47375 -42.10546875 22.6875 C-38.44866986 18.32905799 -34.8311647 15.03131903 -30 12 C-29.34 12 -28.68 12 -28 12 C-27.75121094 11.39285156 -27.50242187 10.78570312 -27.24609375 10.16015625 C-24.15802724 4.80686226 -16.95051999 2.82036918 -11.3125 1.1875 C-7.47746851 0.24885593 -3.95533334 -0.5933 0 0 Z M-10.375 2.625 C-11.02210938 2.79128906 -11.66921875 2.95757813 -12.3359375 3.12890625 C-16.86041832 4.37861164 -20.21778841 6.26524946 -24 9 C-24.92683594 9.5671875 -25.85367188 10.134375 -26.80859375 10.71875 C-29.64564968 12.64103456 -31.85359033 14.31591255 -34 17 C-34.55296011 21.21696685 -34.00076741 24.88725723 -33 29 C-29.19799002 25.83165835 -25.60989041 22.63823581 -22.1875 19.0625 C-15.45718785 12.25423056 -7.43482106 7.42115017 1 3 C-2.87696203 0.22511855 -6.12380234 1.3948306 -10.375 2.625 Z M-37 19 C-41.50557288 23.67103177 -45.5093672 28.81432257 -49.42578125 33.98046875 C-51 36 -51 36 -53.375 38.5 C-55.73583124 42.13204806 -55.8144785 45.7422815 -56 50 C-52.14740629 50.44337026 -52.14740629 50.44337026 -50.4296875 48.6015625 C-49.91664063 47.94929688 -49.40359375 47.29703125 -48.875 46.625 C-45.26049499 42.19330255 -41.24138051 38.36441407 -37.0390625 34.4921875 C-34.63396797 31.55262751 -34.19504423 29.76085276 -34 26 C-34.85296678 22.21940955 -34.85296678 22.21940955 -36 19 C-36.33 19 -36.66 19 -37 19 Z M-49 47 C-49.69959966 48.31635198 -50.37682528 49.64579341 -51 51 C-46.06286137 50.471358 -42.7194424 48.18242512 -38.6875 45.5 C-38.04232422 45.08363281 -37.39714844 44.66726562 -36.73242188 44.23828125 C-35.13269764 43.19211239 -33.56322136 42.09996632 -32 41 C-32 40.67 -32 40.34 -32 40 C-40.07373455 38.97656886 -44.20438577 40.2970392 -49 47 Z M-59.53515625 53.4609375 C-60.03917969 54.09257813 -60.54320312 54.72421875 -61.0625 55.375 C-62.66063282 57.35131693 -64.19993981 59.19993981 -66 61 C-64.02 61.99 -64.02 61.99 -62 63 C-58.04 59.535 -58.04 59.535 -54 56 C-54.33 54.68 -54.66 53.36 -55 52 C-57.99100091 51.65531052 -57.99100091 51.65531052 -59.53515625 53.4609375 Z M-70 65 C-70 65.66 -70 66.32 -70 67 C-69.34 67 -68.68 67 -68 67 C-68 67.66 -68 68.32 -68 69 C-68.99 69.495 -68.99 69.495 -70 70 C-68.68 69.67 -67.36 69.34 -66 69 C-66 67.35 -66 65.7 -66 64 C-68.0745356 63.8509288 -68.0745356 63.8509288 -70 65 Z " fill="#E2E4E3" transform="translate(322,16)" data-index="2"></path>
<path d="M0 0 C0.66 0.33 1.32 0.66 2 1 C-2.03834665 9.16723918 -6.10844143 15.03870581 -14 20 C-14.66 20 -15.32 20 -16 20 C-16.25007813 20.56332031 -16.50015625 21.12664063 -16.7578125 21.70703125 C-18.19269827 24.35570404 -19.89064156 26.42233612 -21.875 28.6875 C-22.55304688 29.47511719 -23.23109375 30.26273438 -23.9296875 31.07421875 C-26.04133179 33.03844636 -27.18600975 33.62774568 -30 34 C-29.27167969 33.29230469 -28.54335938 32.58460937 -27.79296875 31.85546875 C-25.11542097 29.11800382 -22.70985371 26.29596395 -20.3125 23.3125 C-16.18055556 18.18055556 -16.18055556 18.18055556 -14 16 C-14.99 15.67 -15.98 15.34 -17 15 C-14 13 -14 13 -10.625 12.375 C-6.12736823 10.66900174 -5.19547554 8.80838653 -3.04296875 4.6796875 C-2.69878906 4.12539063 -2.35460937 3.57109375 -2 3 C-1.34 3 -0.68 3 0 3 C0 2.01 0 1.02 0 0 Z " fill="#E7E8E8" transform="translate(325,19)" data-index="3"></path>
<path d="M0 0 C0.33 0.66 0.66 1.32 1 2 C4.02934491 2.65772428 4.02934491 2.65772428 7 3 C6.67 4.32 6.34 5.64 6 7 C5.01 7 4.02 7 3 7 C3 7.721875 3 8.44375 3 9.1875 C1.47189121 13.48530597 -1.99788511 15.07669326 -6 17 C-6.66 17 -7.32 17 -8 17 C-6.47328137 11.58708848 -5.27203579 7.84483221 -1 4 C-0.2127322 1.8618034 -0.2127322 1.8618034 0 0 Z M-2 6 C-2 6.66 -2 7.32 -2 8 C-1.34 8 -0.68 8 0 8 C0 8.66 0 9.32 0 10 C-0.99 10.495 -0.99 10.495 -2 11 C-0.68 10.67 0.64 10.34 2 10 C2 8.35 2 6.7 2 5 C-0.0745356 4.8509288 -0.0745356 4.8509288 -2 6 Z " fill="#F2F4F3" transform="translate(254,75)" data-index="4"></path>
<path d="M0 0 C0.66 0.33 1.32 0.66 2 1 C1.67 1.33 1.34 1.66 1 2 C1.08984301 3.85772162 1.24611861 5.71247985 1.4375 7.5625 C1.623125 9.356875 1.80875 11.15125 2 13 C5.96 9.04 9.92 5.08 14 1 C14 4 14 4 12.37939453 5.96118164 C11.26733643 7.04967407 11.26733643 7.04967407 10.1328125 8.16015625 C9.32972656 8.95357422 8.52664063 9.74699219 7.69921875 10.56445312 C6.84972656 11.38880859 6.00023437 12.21316406 5.125 13.0625 C4.28324219 13.89072266 3.44148438 14.71894531 2.57421875 15.57226562 C1.01260717 17.10764213 -0.55204879 18.63993226 -2.12060547 20.16821289 C-3.42220676 21.43684299 -4.71477857 22.71477857 -6 24 C-6 23.01 -6 22.02 -6 21 C-5.360625 20.401875 -4.72125 19.80375 -4.0625 19.1875 C-1.44004149 16.40610461 -1.15163544 14.79088611 -1 11 C-1.8447856 7.71138905 -1.8447856 7.71138905 -3 5 C-3.99 5.66 -4.98 6.32 -6 7 C-4.60667426 3.63279613 -3.0210714 2.0140476 0 0 Z " fill="#CCCDCD" transform="translate(288,31)" data-index="5"></path>
<path d="M0 0 C0.66 0.99 1.32 1.98 2 3 C2.66 3 3.32 3 4 3 C4.33 3.99 4.66 4.98 5 6 C2.14788675 6.6004449 -0.43105404 7.06068757 -3.34375 6.75 C-6.1206064 6.47574258 -8.26591676 6.3942954 -11 7 C-13.52333638 9.1460934 -15.41586685 11.38828221 -17.40625 14.03125 C-17.9321875 14.6809375 -18.458125 15.330625 -19 16 C-19.66 16 -20.32 16 -21 16 C-18.80348571 11.02422273 -15.26275413 7.32605956 -11 4 C-7.6875 3.5625 -7.6875 3.5625 -5 4 C-4.01 3.67 -3.02 3.34 -2 3 C-2 2.34 -2 1.68 -2 1 C-1.34 0.67 -0.68 0.34 0 0 Z " fill="#D9D9D9" transform="translate(291,50)" data-index="6"></path>
<path d="M0 0 C0.33 0.66 0.66 1.32 1 2 C0.35933594 2.29132812 -0.28132813 2.58265625 -0.94140625 2.8828125 C-6.76608438 5.64324118 -11.29150595 8.59858165 -16 13 C-16.66 12.67 -17.32 12.34 -18 12 C-17.38125 11.7525 -16.7625 11.505 -16.125 11.25 C-13.86728086 10.19814407 -13.86728086 10.19814407 -13.14453125 8.08984375 C-11.6887512 5.4316788 -10.22923336 4.70060259 -7.5625 3.3125 C-6.78003906 2.89613281 -5.99757813 2.47976562 -5.19140625 2.05078125 C-3 1 -3 1 0 0 Z " fill="#ECF0EF" transform="translate(308,18)" data-index="7"></path>
<path d="M0 0 C0.66 0.33 1.32 0.66 2 1 C-2.75 5 -2.75 5 -5 5 C-5.66 6.32 -6.32 7.64 -7 9 C-7.33 8.01 -7.66 7.02 -8 6 C-2.25 1.125 -2.25 1.125 0 0 Z " fill="#F3F3F3" transform="translate(314,34)" data-index="8"></path>
<path d="M0 0 C0.66 0.33 1.32 0.66 2 1 C1.01 1.33 0.02 1.66 -1 2 C-1 2.66 -1 3.32 -1 4 C-0.34 4 0.32 4 1 4 C1 4.66 1 5.32 1 6 C0.01 6.33 -0.98 6.66 -2 7 C-2.66 6.67 -3.32 6.34 -4 6 C-2.25 1.125 -2.25 1.125 0 0 Z " fill="#E8EDEC" transform="translate(253,79)" data-index="9"></path>
<path d="M0 0 C2.0625 0.4375 2.0625 0.4375 4 1 C4 1.99 4 2.98 4 4 C2.68 4.33 1.36 4.66 0 5 C-0.5625 3.0625 -0.5625 3.0625 -1 1 C-0.67 0.67 -0.34 0.34 0 0 Z " fill="#FDFDFD" transform="translate(214,76)" data-index="10"></path>
<path d="M0 0 C1.32 0.33 2.64 0.66 4 1 C2.35 2.98 0.7 4.96 -1 7 C-1.66 6.67 -2.32 6.34 -3 6 C-2.01 4.02 -1.02 2.04 0 0 Z " fill="#F4F4F4" transform="translate(40,71)" data-index="11"></path>
<path d="M0 0 C1.32 0.33 2.64 0.66 4 1 C3 3 3 3 -0.0625 4.125 C-1.031875 4.41375 -2.00125 4.7025 -3 5 C-2.01 3.35 -1.02 1.7 0 0 Z " fill="#F2F5F3" transform="translate(93,104)" data-index="12"></path>
<path d="M0 0 C0.99 0.495 0.99 0.495 2 1 C2 2.65 2 4.3 2 6 C1.01 6.495 1.01 6.495 0 7 C0 4.69 0 2.38 0 0 Z " fill="#D2D3D3" transform="translate(271,54)" data-index="13"></path>
<path d="M0 0 C0.66 1.32 1.32 2.64 2 4 C1.01 4.33 0.02 4.66 -1 5 C-0.67 3.35 -0.34 1.7 0 0 Z " fill="#C3C4C3" transform="translate(281,45)" data-index="14"></path>
<path d="M0 0 C0.33 0.66 0.66 1.32 1 2 C0.0625 4.125 0.0625 4.125 -1 6 C-1.042721 4.33388095 -1.04063832 2.66617115 -1 1 C-0.67 0.67 -0.34 0.34 0 0 Z " fill="#CFD3D1" transform="translate(296,28)" data-index="15"></path>
<path d="M0 0 C1.65 0 3.3 0 5 0 C5 0.33 5 0.66 5 1 C3.35 1 1.7 1 0 1 C0 0.67 0 0.34 0 0 Z " fill="#D1D2D2" transform="translate(302,37)" data-index="16"></path>
<path d="M0 0 C1 4 1 4 1 4 Z " fill="#D5D7D7" transform="translate(269,58)" data-index="17"></path>
<path d="M0 0 C0.99 0.495 0.99 0.495 2 1 C1.67 1.66 1.34 2.32 1 3 C0.67 2.01 0.34 1.02 0 0 Z " fill="#DBDDDB" transform="translate(307,22)" data-index="18"></path>
<path d="M0 0 C0 3 0 3 0 3 Z " fill="#D8DADA" transform="translate(312,21)" data-index="19"></path>
<path d="M0 0 C3 1 3 1 3 1 Z " fill="#E5E5E5" transform="translate(282,57)" data-index="20"></path>
<path d="M0 0 C3 1 3 1 3 1 Z " fill="#C9CCCC" transform="translate(301,39)" data-index="21"></path>
<path d="" fill="#CCD4CE" transform="translate(0,0)" data-index="22"></path>
<path d="" fill="#E3E4E3" transform="translate(0,0)" data-index="23"></path>
<path d="M0 0 C2 1 2 1 2 1 Z " fill="#C4C7C7" transform="translate(300,41)" data-index="24"></path>
<path d="M0 0 C2 1 2 1 2 1 Z " fill="#DDDDDD" transform="translate(315,25)" data-index="25"></path>
<path d="M0 0 C2 1 2 1 2 1 Z " fill="#E1E1E1" transform="translate(317,24)" data-index="26"></path>
<path d="" fill="#DFDFDF" transform="translate(0,0)" data-index="27"></path>
<path d="" fill="#DCDCDC" transform="translate(0,0)" data-index="28"></path>
</svg>